<?xml version="1.0" encoding="UTF-8"?>
<svg version="1.1" viewBox="0 0 800 800" xmlns="http://www.w3.org/2000/svg">
<defs>
<linearGradient id="a" x1="50%" x2="50%" y2="100%" gradientTransform="rotate(270)">
<stop stop-color="hsl(238, 82%, 13%)" offset="0"/>
<stop stop-color="hsl(238, 35%, 38%)" offset=".45"/>
<stop stop-color="hsl(238, 82%, 13%)" offset="1"/>
</linearGradient>
</defs>
<rect width="100%" height="100%" fill="hsl(238, 82%, 13%)"/>
<g fill="url(#a)">
<rect transform="rotate(45 212 657)" x="66" y="655.5" width="292" height="3" rx="1.5" opacity=".78"/>
<rect transform="rotate(45 358 196)" x="202" y="194.5" width="312" height="3" rx="1.5" opacity=".46"/>
<rect transform="rotate(45 591 634)" x="234" y="632.5" width="714" height="3" rx="1.5" opacity=".52"/>
<rect transform="rotate(45 159 708)" x="-79.5" y="706.5" width="477" height="3" rx="1.5" opacity=".92"/>
<rect transform="rotate(45 220 573)" x="83" y="571.5" width="274" height="3" rx="1.5" opacity=".92"/>
<rect transform="rotate(45 296 543)" x="250.5" y="541.5" width="91" height="3" rx="1.5" opacity=".32"/>
<rect transform="rotate(45 747 200)" x="647.5" y="198.5" width="199" height="3" rx="1.5" opacity=".18"/>
<rect transform="rotate(45 40 99)" x="-46" y="97.5" width="172" height="3" rx="1.5" opacity=".66"/>
<rect transform="rotate(45 632 159)" x="380" y="157.5" width="504" height="3" rx="1.5" opacity=".44"/>
<rect transform="rotate(45 150 524)" x="-66" y="522.5" width="432" height="3" rx="1.5" opacity=".89"/>
<rect transform="rotate(45 390 517)" x="77" y="515.5" width="626" height="3" rx="1.5" opacity=".59"/>
<rect transform="rotate(45 418 264)" x="357.5" y="262.5" width="121" height="3" rx="1.5" opacity=".3"/>
<rect transform="rotate(45 254 49)" x="-55.5" y="47.5" width="619" height="3" rx="1.5" opacity=".86"/>
<rect transform="rotate(45 308 434)" x="-3" y="432.5" width="622" height="3" rx="1.5" opacity=".83"/>
<rect transform="rotate(45 521 165)" x="318" y="163.5" width="406" height="3" rx="1.5" opacity=".24"/>
<rect transform="rotate(45 79 607)" x="40" y="605.5" width="78" height="3" rx="1.5" opacity=".33"/>
<rect transform="rotate(45 277 688)" x="216.5" y="686.5" width="121" height="3" rx="1.5" opacity=".16"/>
<rect transform="rotate(45 395 373)" x="312" y="371.5" width="166" height="3" rx="1.5" opacity=".39"/>
<rect transform="rotate(45 461 758)" x="378.5" y="756.5" width="165" height="3" rx="1.5" opacity=".85"/>
<rect transform="rotate(45 142 58)" x="-296.5" y="56.5" width="877" height="3" rx="1.5" opacity=".19"/>
<rect transform="rotate(45 103 718)" x="87" y="716.5" width="32" height="3" rx="1.5" opacity=".64"/>
<rect transform="rotate(45 506 568)" x="284" y="566.5" width="444" height="3" rx="1.5" opacity=".99"/>
<rect transform="rotate(45 631 248)" x="449" y="246.5" width="364" height="3" rx="1.5" opacity=".82"/>
<rect transform="rotate(45 509 69)" x="401.5" y="67.5" width="215" height="3" rx="1.5" opacity=".93"/>
<rect transform="rotate(45 334 312)" x="139" y="310.5" width="390" height="3" rx="1.5"/>
<rect transform="rotate(45 62 674)" x="-89" y="672.5" width="302" height="3" rx="1.5" opacity=".46"/>
<rect transform="rotate(45 47 449)" x="-218" y="447.5" width="530" height="3" rx="1.5" opacity=".13"/>
<rect transform="rotate(45 533 252)" x="418.5" y="250.5" width="229" height="3" rx="1.5" opacity=".28"/>
<rect transform="rotate(45 352 752)" x="76.5" y="750.5" width="551" height="3" rx="1.5" opacity=".45"/>
<rect transform="rotate(45 124 774)" x="109.5" y="772.5" width="29" height="3" rx="1.5" opacity=".93"/>
<rect transform="rotate(45 405 426)" x="337.5" y="424.5" width="135" height="3" rx="1.5" opacity=".95"/>
<rect transform="rotate(45 291 141)" x="252.5" y="139.5" width="77" height="3" rx="1.5" opacity=".08"/>
<rect transform="rotate(45 273 356)" x="99" y="354.5" width="348" height="3" rx="1.5" opacity=".95"/>
<rect transform="rotate(45 449 332)" x="389" y="330.5" width="120" height="3" rx="1.5" opacity=".71"/>
<rect transform="rotate(45 279 259)" x="241" y="257.5" width="76" height="3" rx="1.5" opacity=".24"/>
<rect transform="rotate(45 214 189)" x="15" y="187.5" width="398" height="3" rx="1.5" opacity=".26"/>
<rect transform="rotate(45 559 326)" x="526" y="324.5" width="66" height="3" rx="1.5" opacity=".12"/>
<rect transform="rotate(45 736 540)" x="665" y="538.5" width="142" height="3" rx="1.5" opacity=".77"/>
<rect transform="rotate(45 492 445)" x="413" y="443.5" width="158" height="3" rx="1.5" opacity=".73"/>
<rect transform="rotate(45 20 631)" x="-83" y="629.5" width="206" height="3" rx="1.5" opacity=".62"/>
<rect transform="rotate(45 81 529)" x="-142" y="527.5" width="446" height="3" rx="1.5" opacity=".26"/>
<rect transform="rotate(45 451 25)" x="297.5" y="23.5" width="307" height="3" rx="1.5" opacity=".45"/>
<rect transform="rotate(45 365 248)" x="296.5" y="246.5" width="137" height="3" rx="1.5" opacity=".96"/>
<rect transform="rotate(45 228 765)" x="125" y="763.5" width="206" height="3" rx="1.5" opacity=".3"/>
<rect transform="rotate(45 577 747)" x="281" y="745.5" width="592" height="3" rx="1.5" opacity=".6"/>
<rect transform="rotate(45 606 31)" x="516" y="29.5" width="180" height="3" rx="1.5" opacity=".89"/>
<rect transform="rotate(45 637 377)" x="448.5" y="375.5" width="377" height="3" rx="1.5" opacity=".61"/>
<rect transform="rotate(45 48 353)" x="-114.5" y="351.5" width="325" height="3" rx="1.5" opacity=".1"/>
<rect transform="rotate(45 712 636)" x="434" y="634.5" width="556" height="3" rx="1.5" opacity=".4"/>
<rect transform="rotate(45 354 53)" x="173" y="51.5" width="362" height="3" rx="1.5" opacity=".47"/>
<rect transform="rotate(45 105 192)" x="-156" y="190.5" width="522" height="3" rx="1.5" opacity=".51"/>
<rect transform="rotate(45 137 444)" x="-62" y="442.5" width="398" height="3" rx="1.5" opacity=".37"/>
<rect transform="rotate(45 680 750)" x="381.5" y="748.5" width="597" height="3" rx="1.5" opacity=".44"/>
<rect transform="rotate(45 749 417)" x="566.5" y="415.5" width="365" height="3" rx="1.5" opacity=".13"/>
<rect transform="rotate(45 364 635)" x="331" y="633.5" width="66" height="3" rx="1.5" opacity=".27"/>
<rect transform="rotate(45 382 327)" x="229" y="325.5" width="306" height="3" rx="1.5" opacity=".85"/>
<rect transform="rotate(45 719 314)" x="564" y="312.5" width="310" height="3" rx="1.5" opacity=".09"/>
<rect transform="rotate(45 400 146)" x="237.5" y="144.5" width="325" height="3" rx="1.5" opacity=".37"/>
<rect transform="rotate(45 436 97)" x="281.5" y="95.5" width="309" height="3" rx="1.5" opacity=".95"/>
<rect transform="rotate(45 45 781)" x="21" y="779.5" width="48" height="3" rx="1.5" opacity=".74"/>
<rect transform="rotate(45 572 431)" x="355.5" y="429.5" width="433" height="3" rx="1.5" opacity=".46"/>
<rect transform="rotate(45 472 667)" x="345.5" y="665.5" width="253" height="3" rx="1.5" opacity=".12"/>
<rect transform="rotate(45 459 209)" x="261" y="207.5" width="396" height="3" rx="1.5" opacity=".82"/>
<rect transform="rotate(45 198 299)" x="-35.5" y="297.5" width="467" height="3" rx="1.5" opacity=".36"/>
<rect transform="rotate(45 587 98)" x="380.5" y="96.5" width="413" height="3" rx="1.5" opacity=".08"/>
<rect transform="rotate(45 764 726)" x="556" y="724.5" width="416" height="3" rx="1.5" opacity=".26"/>
<rect transform="rotate(45 30 731)" x="5" y="729.5" width="50" height="3" rx="1.5" opacity=".18"/>
<rect transform="rotate(45 224 460)" x="154" y="458.5" width="140" height="3" rx="1.5" opacity=".13"/>
<rect transform="rotate(45 87 281)" x="-42" y="279.5" width="258" height="3" rx="1.5" opacity=".92"/>
<rect transform="rotate(45 491 499)" x="430.5" y="497.5" width="121" height="3" rx="1.5" opacity=".09"/>
<rect transform="rotate(45 143 618)" x="-46.5" y="616.5" width="379" height="3" rx="1.5" opacity=".86"/>
<rect transform="rotate(45 25 547)" x="-140" y="545.5" width="330" height="3" rx="1.5" opacity=".54"/>
<rect transform="rotate(45 173 377)" x="-32" y="375.5" width="410" height="3" rx="1.5" opacity=".19"/>
<rect transform="rotate(45 477 291)" x="318" y="289.5" width="318" height="3" rx="1.5" opacity=".38"/>
<rect transform="rotate(45 732 65)" x="310" y="63.5" width="844" height="3" rx="1.5" opacity=".12"/>
<rect transform="rotate(45 632 502)" x="430" y="500.5" width="404" height="3" rx="1.5" opacity=".57"/>
<rect transform="rotate(45 496 384)" x="358.5" y="382.5" width="275" height="3" rx="1.5" opacity=".36"/>
</g>
</svg>
